# xmcd
#
# Track frame offsets:
#	150
#	12117
#	26139
#
# Disc length: 512 seconds
#
# Revision: 0
# Processed by: cddbd v1.5.2PL0 Copyright (c) Steve Scherf et al.
# Submitted via: dBpowerAMP V4.0
#
DISCID=1901fe03
DTITLE=Bob Walker - Walking With Jesus (Demo)
DYEAR=2007
DGENRE=Gospel
TTITLE0=Will The Circle Be Unbroken
TTITLE1=Still Watches Over Me
TTITLE2=I'm A Winner Either Way
EXTD=
EXTT0=
EXTT1=
EXTT2=
PLAYORDER=
